:version 1.10
:name ASF
:units
  mass 1
  length 1
  angle deg
:documentation
  ASF file generated by Kaydara
:root
  axis xyz
  order  tx ty tz rx ry rz
  position 0 0 0
  orientation 0 0 0
:bonedata
  begin
    id 1
    name RightUpLegDummy
    direction -0.65628 -0.754516 0.00165102
    length 4.76918
    axis 0 0 0 xyz
  end
  begin
    id 2
    name RightUpLeg
    direction -0.145584 -0.923362 0.355256
    length 17.9961
    axis -24.7611 -13.1006 1.78531 xyz
    dof rx ry rz
  end
  begin
    id 3
    name RightLeg
    direction 0.263379 0.172355 -0.949171
    length 13.3386
    axis 89.6202 -21.1929 12.3855 xyz
    dof rx ry rz
  end
  begin
    id 4
    name RightFoot
    direction 0.224283 -0.968777 -0.105675
    length 5.86697
    axis 56.995 -39.6905 17.3365 xyz
    dof rx ry rz
  end
  begin
    id 5
    name RightToes
    direction -0.0806345 -0.9037 0.420506
    length 4.75197
    axis 146.825 -39.7828 17.6019 xyz
    dof rx ry rz
  end
  begin
    id 6
    name SpineDummy
    direction -3.39852e-014 1 9.33296e-014
    length 8.13779
    axis 0 0 0 xyz
  end
  begin
    id 7
    name Spine
    direction -0.156609 0.733703 0.661176
    length 7.14978
    axis 41.2365 5.68757 17.0844 xyz
    dof rx ry rz
  end
  begin
    id 8
    name Spine1
    direction 0 0 0
    length 0
    axis 42.8809 47.8308 -3.36039 xyz
    dof rx ry rz
  end
  begin
    id 9
    name HEadDummy
    direction 0.546431 0.701947 0.456819
    length 3.55512
    axis 42.8809 47.8308 -3.36039 xyz
  end
  begin
    id 10
    name HEad
    direction 0.23444 0.828559 0.508457
    length 7.35827
    axis 51.1864 49.2662 27.4903 xyz
    dof rx ry rz
  end
  begin
    id 11
    name LeftShoulder1Dummy
    direction 0.431183 0.475873 -0.766568
    length 2.49352
    axis 42.8809 47.8308 -3.36039 xyz
  end
  begin
    id 12
    name LeftShoulder1
    direction 0.268187 -0.383402 -0.883786
    length 4.48604
    axis -119.517 0.106469 35.1736 xyz
    dof rx ry rz
  end
  begin
    id 13
    name LeftArm
    direction 0.380567 -0.703221 -0.600541
    length 10.1142
    axis -5.41825 36.2925 7.8293 xyz
    dof rx ry rz
  end
  begin
    id 14
    name LeftForeArm
    direction 0.541071 -0.732356 -0.413396
    length 9.39839
    axis 4.65387 33.7604 7.81644 xyz
    dof rx ry rz
  end
  begin
    id 15
    name LeftHand
    direction 0.847511 -0.389379 -0.360707
    length 3.66142
    axis 7.65593 21.1436 -24.6758 xyz
    dof rx ry rz
  end
  begin
    id 16
    name RightShoulderDummy
    direction -0.692546 0.541855 0.476208
    length 2.49352
    axis 42.8809 47.8308 -3.36039 xyz
  end
  begin
    id 17
    name RightShoulder
    direction -0.870808 -0.316653 0.376065
    length 4.48602
    axis 141.571 51.133 -100.254 xyz
    dof rx ry rz
  end
  begin
    id 18
    name RightArm
    direction 0.366897 -0.87275 0.322015
    length 10.1142
    axis 92.3258 71.2036 138.917 xyz
    dof rx ry rz
  end
  begin
    id 19
    name RightForeArm
    direction 0.702487 -0.694568 0.155197
    length 9.39835
    axis 153.863 41.5092 -176.604 xyz
    dof rx ry rz
  end
  begin
    id 20
    name RightHand
    direction 0.79502 -0.601276 0.0800636
    length 3.66142
    axis 154.247 4.59222 142.9 xyz
    dof rx ry rz
  end
  begin
    id 21
    name LeftUpLegDummy
    direction 0.65628 -0.754516 0.00165102
    length 4.76919
    axis 0 0 0 xyz
  end
  begin
    id 22
    name LeftUpLeg
    direction -0.1277 -0.689368 0.713067
    length 17.9961
    axis -48.3385 -17.8675 0.791927 xyz
    dof rx ry rz
  end
  begin
    id 23
    name LeftLeg
    direction 0.109849 -0.991246 -0.0732378
    length 13.3386
    axis -2.05791 -7.30784 1.72042 xyz
    dof rx ry rz
  end
  begin
    id 24
    name LeftFoot
    direction 0.0448355 -0.272614 0.961078
    length 5.86697
    axis -18.7733 -7.89606 10.2113 xyz
    dof rx ry rz
  end
  begin
    id 25
    name LeftToes
    direction -0.18506 0.293668 0.937823
    length 4.75197
    axis 71.2267 -7.89606 10.2113 xyz
    dof rx ry rz
  end
:hierarchy
  begin
    root RightUpLegDummy SpineDummy LeftUpLegDummy
    RightUpLegDummy RightUpLeg
    RightUpLeg RightLeg
    RightLeg RightFoot
    RightFoot RightToes
    SpineDummy Spine
    Spine Spine1
    Spine1 HEadDummy LeftShoulder1Dummy RightShoulderDummy
    HEadDummy HEad
    LeftShoulder1Dummy LeftShoulder1
    LeftShoulder1 LeftArm
    LeftArm LeftForeArm
    LeftForeArm LeftHand
    RightShoulderDummy RightShoulder
    RightShoulder RightArm
    RightArm RightForeArm
    RightForeArm RightHand
    LeftUpLegDummy LeftUpLeg
    LeftUpLeg LeftLeg
    LeftLeg LeftFoot
    LeftFoot LeftToes
  end

:SAMPLES-PER-SECOND 30
:FULLY-SPECIFIED
:DEGREES
234
root  3.87725 31.9601 -11.6649 161.397 2.59871 51.3718
RightUpLeg  -24.8194 -9.70866 -44.7507
RightLeg  -106.064 -14.8826 -10.0963
RightFoot  25.1489 -1.58484 -7.75485
RightToes  -1.27222e-014 -6.36111e-015 6.36111e-015
Spine  -11.9358 -44.2051 -31.3284
Spine1  -33.8834 -15.7812 95.4554
HEad  -11.6104 -23.2916 -8.91115
LeftShoulder1  6.36111e-015 -1.33558e-015 6.49777e-015
LeftArm  -56.6248 -42.1665 15.0272
LeftForeArm  -11.9591 29.156 2.67761
LeftHand  2.36924 9.54398 -7.6541
RightShoulder  -4.77083e-015 -6.36111e-015 -3.18055e-015
RightArm  -17.2078 32.6934 -48.3553
RightForeArm  -1.23303 -36.1809 -3.26357
RightHand  22.1808 -13.3454 -65.0954
LeftUpLeg  15.7549 7.60573 66.7806
LeftLeg  -47.0682 7.34585 -17.2316
LeftFoot  19.0201 3.14782 -6.57145
LeftToes  9.54166e-015 -1.91609e-011 -2.3878e-011
235
root  5.55365 32.2102 -11.8995 166.259 19.4606 49.106
RightUpLeg  -23.6163 -8.21706 -48.4332
RightLeg  -105.853 -14.5218 -2.92587
RightFoot  24.1791 0.927758 -10.9669
RightToes  -1.27222e-014 -6.36111e-015 6.36111e-015
Spine  -15.6084 -39.4768 -26.6632
Spine1  -32.2469 -15.0627 89.1713
HEad  -15.2237 -22.8358 -6.7991
LeftShoulder1  6.36111e-015 -1.33558e-015 6.49777e-015
LeftArm  -56.0838 -42.3258 11.6762
LeftForeArm  -18.498 34.1936 1.7462
LeftHand  1.2019 5.65504 -7.25693
RightShoulder  -4.77083e-015 -6.36111e-015 -3.18055e-015
RightArm  -16.9203 27.4733 -44.6793
RightForeArm  -4.80587 -38.8348 -4.86358
RightHand  21.8298 -13.4182 -64.1064
LeftUpLeg  16.5008 7.32092 66.4916
LeftLeg  -46.9652 6.33588 -16.336
LeftFoot  23.5604 3.89293 -7.3804
LeftToes  9.54166e-015 -1.91609e-011 -2.3878e-011
236
root  7.04403 32.1678 -12.5617 170.595 37.3481 49.0763
RightUpLeg  -20.9042 -5.32885 -51.0664
RightLeg  -105.279 -12.6064 6.15618
RightFoot  23.4427 3.78874 -14.8858
RightToes  -1.27222e-014 -6.36111e-015 6.36111e-015
Spine  -17.3908 -33.7494 -22.9018
Spine1  -32.3636 -13.7285 79.7923
HEad  -17.7958 -23.9264 -4.37422
LeftShoulder1  6.36111e-015 -1.33558e-015 6.49777e-015
LeftArm  -57.8951 -42.3438 9.99566
LeftForeArm  -24.0541 34.1104 -0.549696
LeftHand  1.90338 7.7225 -6.9696
RightShoulder  -4.77083e-015 -6.36111e-015 -3.18055e-015
RightArm  -16.0831 20.8957 -41.319
RightForeArm  -7.6018 -40.7219 -5.71004
RightHand  23.072 -14.2928 -65.2992
LeftUpLeg  17.1114 7.3032 66.0006
LeftLeg  -46.6963 5.615 -15.6936
LeftFoot  23.8263 5.0792 -9.5312
LeftToes  9.54166e-015 -1.91609e-011 -2.3878e-011
237
root  8.26619 31.9775 -13.564 175.613 56.464 51.7024
RightUpLeg  -18.0341 -3.24854 -51.8728
RightLeg  -105.363 -11.5797 10.4376
RightFoot  22.5915 4.5489 -15.8475
RightToes  -1.27222e-014 -6.36111e-015 6.36111e-015
Spine  -18.665 -26.6878 -17.9162
Spine1  -33.1093 -12.9053 66.7868
HEad  -20.31 -25.7809 -1.71902
LeftShoulder1  6.36111e-015 -1.33558e-015 6.49777e-015
LeftArm  -60.6763 -39.4279 7.29627
LeftForeArm  -24.953 27.9388 -0.943451
LeftHand  5.03703 13.7682 -1.41218
RightShoulder  -4.77083e-015 -6.36111e-015 -3.18055e-015
RightArm  -15.2764 13.1758 -37.539
RightForeArm  -10.8408 -44.1146 -6.5786
RightHand  22.1954 -15.9388 -60.1336
LeftUpLeg  17.5727 7.46287 65.0885
LeftLeg  -45.826 3.98577 -14.0613
LeftFoot  26.1027 6.86338 -12.2493
LeftToes  9.54166e-015 -1.91609e-011 -2.3878e-011
238
root  9.23256 31.741 -14.861 -172.413 76.5665 63.6482
RightUpLeg  -16.594 -1.64761 -51.8492
RightLeg  -105.967 -11.5118 11.1637
RightFoot  22.8873 5.77388 -17.6936
RightToes  -1.27222e-014 -6.36111e-015 6.36111e-015
Spine  -19.2043 -17.1525 -10.6879
Spine1  -32.6477 -13.1176 47.6168
HEad  -23.315 -30.0446 1.38513
LeftShoulder1  6.36111e-015 -1.33558e-015 6.49777e-015
LeftArm  -63.3313 -33.9811 1.90199
LeftForeArm  -18.7937 13.9859 -0.486772
LeftHand  8.71182 16.1297 9.68609
RightShoulder  -4.77083e-015 -6.36111e-015 -3.18055e-015
RightArm  -12.1352 6.51117 -33.8552
RightForeArm  -13.6991 -47.4074 -6.54555
RightHand  20.3361 -15.8887 -55.7162
LeftUpLeg  18.44 7.33832 63.1377
LeftLeg  -44.716 2.00672 -11.422
LeftFoot  31.1317 8.29652 -13.405
LeftToes  9.54166e-015 -1.91609e-011 -2.3878e-011
239
root  9.87477 31.3671 -16.4037 -40.1284 80.8999 -161.378
RightUpLeg  -16.766 -1.63578 -52.3801
RightLeg  -106.683 -11.9494 10.424
RightFoot  24.0764 7.10692 -19.7685
RightToes  -1.27222e-014 -6.36111e-015 6.36111e-015
Spine  -17.28 -6.40574 -2.98021
Spine1  -28.8728 -12.7267 24.563
HEad  -26.3498 -36.7547 4.83696
LeftShoulder1  6.36111e-015 -1.33558e-015 6.49777e-015
LeftArm  -63.5323 -34.3931 1.21356
LeftForeArm  -14.1966 6.59664 -1.57537
LeftHand  10.1104 16.3044 14.5608
RightShoulder  -4.77083e-015 -6.36111e-015 -3.18055e-015
RightArm  -6.55384 1.47896 -30.5436
RightForeArm  -13.2087 -47.9062 -5.89688
RightHand  20.4596 -15.9166 -55.9732
LeftUpLeg  19.048 7.22538 59.9033
LeftLeg  -42.0692 -1.76124 -6.45758
LeftFoot  34.3869 9.87363 -14.9757
LeftToes  9.54166e-015 -1.91609e-011 -2.3878e-011
240
root  9.98643 30.7664 -17.9754 -23.621 61.7499 -138.788
RightUpLeg  -18.2638 -3.36731 -54.2761
RightLeg  -108.237 -12.2186 10.2333
RightFoot  24.6366 7.40677 -20.2479
RightToes  -1.27222e-014 -6.36111e-015 6.36111e-015
Spine  -13.4704 2.32826 2.48799
Spine1  -23.2606 -9.39082 7.06179
HEad  -28.0267 -42.0642 7.53393
LeftShoulder1  6.36111e-015 -1.33558e-015 6.49777e-015
LeftArm  -62.0828 -36.9326 4.09919
LeftForeArm  -11.4298 6.26977 -3.67784
LeftHand  10.8708 18.071 13.9145
RightShoulder  -4.77083e-015 -6.36111e-015 -3.18055e-015
RightArm  -2.5382 -1.95204 -27.8674
RightForeArm  -10.7713 -42.7263 -2.02433
RightHand  18.3067 -19.2454 -45.0001
LeftUpLeg  19.8047 8.05262 57.1165
LeftLeg  -38.4362 -9.91217 -0.541323
LeftFoot  34.9228 12.3066 -18.4104
LeftToes  9.54166e-015 -1.91609e-011 -2.3878e-011
241
root  9.64122 29.8313 -19.2873 -27.0015 43.0397 -132.148
RightUpLeg  -20.7247 -5.84752 -55.357
RightLeg  -110.376 -12.0378 11.6096
RightFoot  24.7931 7.97839 -21.0783
RightToes  -1.27222e-014 -6.36111e-015 6.36111e-015
Spine  -10.0189 7.91005 7.10359
Spine1  -19.1244 -5.55444 -0.537454
HEad  -26.4887 -42.3897 8.30133
LeftShoulder1  6.36111e-015 -1.33558e-015 6.49777e-015
LeftArm  -57.2611 -35.137 4.73335
LeftForeArm  -8.22834 3.52345 -4.86884
LeftHand  12.511 19.9366 15.9723
RightShoulder  -4.77083e-015 -6.36111e-015 -3.18055e-015
RightArm  1.08343 -4.42842 -24.146
RightForeArm  -9.49421 -25.5934 3.7519
RightHand  8.5445 -17.5031 -18.9761
LeftUpLeg  22.3863 8.30719 55.3499
LeftLeg  -37.4258 -17.5992 4.06266
LeftFoot  34.3731 15.0249 -22.6121
LeftToes  9.54166e-015 -1.91609e-011 -2.3878e-011
242
root  9.03043 28.4576 -20.1127 -35.2361 26.2241 -126.54
RightUpLeg  -23.6891 -7.90717 -55.3283
RightLeg  -110.795 -12.0243 11.524
RightFoot  24.5029 8.78967 -22.2291
RightToes  -1.27222e-014 -6.36111e-015 6.36111e-015
Spine  -7.11127 10.8658 11.7915
Spine1  -16.4472 -2.97791 -1.79265
HEad  -21.7479 -38.7597 8.46392
LeftShoulder1  6.36111e-015 -1.33558e-015 6.49777e-015
LeftArm  -47.3665 -28.7542 1.80621
LeftForeArm  -4.89282 -4.63976 -3.71221
LeftHand  14.6988 20.8134 21.0413
RightShoulder  -4.77083e-015 -6.36111e-015 -3.18055e-015
RightArm  22.2918 7.12171 -4.74888
RightForeArm  -23.2768 -19.8571 -5.01377
RightHand  1.30182 -7.08614 -0.393728
LeftUpLeg  25.6912 6.23867 51.6035
LeftLeg  -35.1557 -18.4924 5.96058
LeftFoot  32.7841 15.5169 -24.0215
LeftToes  9.54166e-015 -1.91609e-011 -2.3878e-011
243
root  8.45218 26.7789 -20.3461 -45.4376 12.1469 -119.267
RightUpLeg  -27.7024 -9.49081 -54.4648
RightLeg  -109.293 -12.3242 9.20053
RightFoot  23.0838 8.57733 -21.8509
RightToes  -1.27222e-014 -6.36111e-015 6.36111e-015
Spine  -5.64755 12.3366 15.8145
Spine1  -14.3086 -1.34439 0.583594
HEad  -14.7379 -34.4684 9.14588
LeftShoulder1  6.36111e-015 -1.33558e-015 6.49777e-015
LeftArm  -35.9823 -18.5598 -1.28103
LeftForeArm  -1.45113 -14.2645 -2.31612
LeftHand  16.2282 22.0046 23.2626
RightShoulder  -4.77083e-015 -6.36111e-015 -3.18055e-015
RightArm  30.6532 -0.213563 1.63479
RightForeArm  -29.4191 1.78047 -17.8421
RightHand  -0.895284 1.21977 5.88281
LeftUpLeg  29.7404 5.23411 47.8314
LeftLeg  -33.0145 -16.7497 4.7628
LeftFoot  33.7386 14.3151 -21.8167
LeftToes  9.54166e-015 -1.91609e-011 -2.3878e-011
244
root  8.12826 24.9745 -20.1601 -57.2631 1.59834 -109.142
RightUpLeg  -33.6229 -11.3422 -51.4744
RightLeg  -108.135 -12.3953 7.34987
RightFoot  21.5459 7.87836 -20.7056
RightToes  -1.27222e-014 -6.36111e-015 6.36111e-015
Spine  -6.26421 12.5819 18.7082
Spine1  -12.1009 -1.06562 5.03615
HEad  -5.98974 -31.0643 9.4848
LeftShoulder1  6.36111e-015 -1.33558e-015 6.49777e-015
LeftArm  -25.4243 -8.55003 -1.1743
LeftForeArm  2.56204 -19.6044 -2.17254
LeftHand  17.2874 23.3982 23.7178
RightShoulder  -4.77083e-015 -6.36111e-015 -3.18055e-015
RightArm  40.8989 -5.59602 3.12925
RightForeArm  -41.4445 12.3524 -32.2303
RightHand  -1.31872 4.285 6.41477
LeftUpLeg  35.1879 8.95192 48.5019
LeftLeg  -33.8905 -19.5802 3.50622
LeftFoot  36.4523 14.5665 -21.1293
LeftToes  9.54166e-015 -1.91609e-011 -2.3878e-011
245
root  8.1134 23.025 -19.4778 -71.5041 -3.32966 -97.4212
RightUpLeg  -40.2368 -13.3941 -47.73
RightLeg  -107.192 -12.1336 6.78561
RightFoot  20.5368 7.67207 -20.3106
RightToes  -1.27222e-014 -6.36111e-015 6.36111e-015
Spine  -7.02514 11.0609 20.1041
Spine1  -8.9364 -1.64777 10.4361
HEad  3.98485 -28.4812 8.46856
LeftShoulder1  6.36111e-015 -1.33558e-015 6.49777e-015
LeftArm  -14.518 -2.27618 0.665771
LeftForeArm  6.78781 -20.2769 -2.66109
LeftHand  18.6059 24.0108 26.0625
RightShoulder  -4.77083e-015 -6.36111e-015 -3.18055e-015
RightArm  50.3964 -8.31067 -4.30999
RightForeArm  -55.2822 15.3527 -45.5985
RightHand  -1.1472 2.19478 7.1153
LeftUpLeg  39.3939 14.1203 48.3808
LeftLeg  -30.3362 -23.8765 4.49792
LeftFoot  32.1597 14.8849 -23.3314
LeftToes  9.54166e-015 -1.91609e-011 -2.3878e-011
